Coordinates
version=1
nRows=10
nColumns=34
inDegrees=yes

Units are S.I. units (second, meters, Newtons, ...)
If the header above contains a line with 'inDegrees', this indicates whether rotational values are in degrees (yes) or radians (no).

endheader
time	pelvis_tilt	pelvis_list	pelvis_rotation	pelvis_tx	pelvis_ty	pelvis_tz	hip_flexion_r	hip_adduction_r	hip_rotation_r	knee_angle_r	ankle_angle_r	subtalar_angle_r	mtp_angle_r	hip_flexion_l	hip_adduction_l	hip_rotation_l	knee_angle_l	ankle_angle_l	subtalar_angle_l	mtp_angle_l	lumbar_extension	lumbar_bending	lumbar_rotation	arm_flex_r	arm_add_r	arm_rot_r	elbow_flex_r	pro_sup_r	arm_flex_l	arm_add_l	arm_rot_l	elbow_flex_l	pro_sup_l
      0.00000000	     -1.39203517	      6.77148280	    -26.89207155	      0.13427014	      0.69352123	      0.05931344	     76.05416720	    -18.93696178	     -0.52017901	     93.00024167	     30.17214074	     -7.29773084	      0.00000000	     73.97548468	    -18.56108405	    -11.95364964	     88.92000603	     28.87063660	     -3.90672387	      0.00000000	    -23.86095446	     -1.69479268	      1.68057912	     62.20281760	    -28.89124678	     40.11924143	    116.03566942	    119.74817918	     56.44196330	    -26.32991383	     28.76112084	    119.18319336	    117.89106153
      0.01666670	     -1.55752605	      6.85029981	    -26.85991695	      0.13385506	      0.69422943	      0.05930994	     76.04578947	    -18.90011286	     -0.59500421	     92.71595216	     30.22462341	     -7.25682322	      0.00000000	     73.95527235	    -18.51445303	    -11.99671293	     88.58164010	     29.00215979	     -3.85231256	      0.00000000	    -23.83064043	     -1.74097662	      1.63579562	     62.44184769	    -28.96887095	     39.94351980	    116.01634773	    119.74817918	     56.85451842	    -26.23575780	     28.49032882	    119.22632016	    117.97283266
      0.03333330	     -1.03051576	      6.65534333	    -26.85889648	      0.13508909	      0.69954006	      0.05949852	     74.84779820	    -19.29218122	     -0.89933424	     92.10642447	     30.03917737	     -7.08013533	      0.00000000	     72.69505619	    -18.42805711	    -12.37626435	     87.98043838	     28.99044445	     -3.84760758	      0.00000000	    -24.35401902	     -1.77890608	      1.49503820	     61.99374225	    -28.98109439	     39.65432057	    116.35819086	    119.74817918	     56.08667664	    -26.11365319	     27.63455611	    119.27864272	    119.74817918
      0.05000000	     -1.27804692	      6.75055342	    -26.86377606	      0.13609176	      0.70376246	      0.06009087	     74.39940546	    -19.43245933	     -1.32129461	     91.29722989	     29.90866910	     -6.90872975	      0.00000000	     72.25443306	    -18.47120169	    -12.67473855	     87.20689862	     28.98861114	     -3.70346435	      0.00000000	    -23.87417504	     -1.84014211	      1.49401301	     61.64530904	    -28.88598658	     39.44257062	    116.02545040	    119.74817918	     55.67981229	    -25.82771596	     27.25359506	    118.79425814	    119.74817918
      0.06666670	     -1.37193066	      6.74510869	    -26.89480465	      0.13760766	      0.70970608	      0.06090706	     73.54143167	    -19.56272649	     -1.78680437	     90.29786560	     29.69203497	     -6.60205176	      0.00000000	     71.43327008	    -18.38577217	    -12.89782032	     86.22134579	     28.89414627	     -3.55257997	      0.00000000	    -23.70120835	     -1.85048851	      1.60194874	     61.00384900	    -29.00941928	     38.91372248	    116.18795485	    119.74817918	     54.83175949	    -25.77397885	     26.51354910	    118.88971698	    119.74817918
      0.08333330	     -1.59314751	      6.78761713	    -26.89305692	      0.13906514	      0.71596564	      0.06163120	     72.72326307	    -19.60698738	     -2.24385191	     89.14681285	     29.61476068	     -6.33617529	      0.00000000	     70.66997690	    -18.28038203	    -13.17073042	     85.08292668	     28.85839314	     -3.40160516	      0.00000000	    -23.58634051	     -1.85510044	      1.59184017	     60.70475307	    -29.19764127	     38.63645963	    116.78501605	    119.74817918	     54.32426977	    -25.85996135	     25.99411819	    119.63554849	    119.74817918
      0.10000000	     -1.65599045	      6.77992650	    -26.91019669	      0.14145937	      0.72285391	      0.06261220	     71.70064925	    -19.75263553	     -2.71446805	     88.06281631	     29.41681009	     -6.03661740	      0.00000000	     69.66401136	    -18.21876545	    -13.56034600	     84.03516718	     28.70039958	     -3.26065245	      0.00000000	    -23.47565667	     -1.83788180	      1.60709464	     60.14272951	    -29.39544810	     38.19691933	    117.14246751	    119.74817918	     53.46153751	    -25.92602755	     25.31644262	    120.19384005	    119.74817918
      0.11666670	     -1.55891822	      6.70889914	    -26.93594513	      0.14365007	      0.73066750	      0.06330663	     70.38016439	    -19.95034460	     -3.28506788	     86.81364307	     29.54736504	     -5.51896038	      0.00000000	     68.34354665	    -18.08156922	    -14.02773019	     82.79880814	     28.84128188	     -2.87458451	      0.00000000	    -23.56138822	     -1.75819240	      1.59405493	     59.91662301	    -29.44966136	     38.02082571	    117.20070566	    119.74817918	     52.84026796	    -26.02730986	     25.04079459	    120.45933085	    119.74817918
      0.13333330	     -1.81076262	      6.81907856	    -26.96366453	      0.14677864	      0.73726180	      0.06472563	     69.59515694	    -19.95172574	     -3.63367797	     85.79504996	     29.41980815	     -5.38636254	      0.00000000	     67.53493582	    -17.96137130	    -14.33919438	     81.77045530	     28.73776754	     -2.74165208	      0.00000000	    -22.92325362	     -1.77204823	      1.61779857	     59.44401863	    -29.70241306	     38.17417378	    117.21350212	    119.74817918	     52.09795973	    -26.15460361	     25.22086083	    120.54621371	    119.74817918
      0.15000000	     -1.42902738	      6.59603609	    -26.96767763	      0.14988528	      0.74577386	      0.06584834	     67.85871120	    -20.10624250	     -4.16273255	     84.59903249	     29.61460802	     -5.02270963	      0.00000000	     65.83098564	    -17.75151432	    -14.74141239	     80.57962848	     28.97495372	     -2.32838445	      0.00000000	    -23.20134594	     -1.70291985	      1.49635726	     59.11351117	    -29.75514310	     38.03061752	    117.29419935	    119.74817918	     51.44517272	    -26.11424470	     25.01088765	    120.75450109	    119.74817918
